<svg xmlns="http://www.w3.org/2000/svg" xmlns:xlink="http://www.w3.org/1999/xlink" width="500" zoomAndPan="magnify" viewBox="0 0 375 374.999991" height="500" preserveAspectRatio="xMidYMid meet" version="1.0"><defs><g/><clipPath id="e8229ccb16"><path d="M 34.101562 91.421875 L 74 91.421875 L 74 131 L 34.101562 131 Z M 34.101562 91.421875 " clip-rule="nonzero"/></clipPath><clipPath id="aa96b68dc0"><path d="M 34.101562 91.421875 L 81.351562 91.421875 L 81.351562 152 L 34.101562 152 Z M 34.101562 91.421875 " clip-rule="nonzero"/></clipPath><clipPath id="93a615715d"><path d="M 49 150 L 67 150 L 67 155.921875 L 49 155.921875 Z M 49 150 " clip-rule="nonzero"/></clipPath></defs><g clip-path="url(#e8229ccb16)"><path fill="#ffbd59" d="M 73.078125 110.882812 C 73.078125 111.519531 73.046875 112.15625 72.984375 112.789062 C 72.921875 113.421875 72.828125 114.054688 72.703125 114.679688 C 72.582031 115.304688 72.425781 115.921875 72.242188 116.53125 C 72.054688 117.140625 71.839844 117.738281 71.597656 118.328125 C 71.351562 118.917969 71.082031 119.492188 70.78125 120.054688 C 70.480469 120.617188 70.152344 121.164062 69.800781 121.695312 C 69.445312 122.222656 69.066406 122.734375 68.660156 123.226562 C 68.257812 123.71875 67.828125 124.191406 67.378906 124.640625 C 66.929688 125.09375 66.457031 125.519531 65.964844 125.925781 C 65.472656 126.328125 64.960938 126.707031 64.429688 127.0625 C 63.898438 127.417969 63.355469 127.742188 62.792969 128.042969 C 62.230469 128.34375 61.652344 128.617188 61.066406 128.859375 C 60.476562 129.105469 59.875 129.320312 59.265625 129.503906 C 58.65625 129.691406 58.039062 129.84375 57.414062 129.96875 C 56.789062 130.09375 56.160156 130.1875 55.523438 130.25 C 54.890625 130.3125 54.253906 130.34375 53.617188 130.34375 C 52.980469 130.34375 52.34375 130.3125 51.710938 130.25 C 51.074219 130.1875 50.445312 130.09375 49.820312 129.96875 C 49.195312 129.84375 48.578125 129.691406 47.96875 129.503906 C 47.359375 129.320312 46.757812 129.105469 46.171875 128.859375 C 45.582031 128.617188 45.007812 128.34375 44.445312 128.042969 C 43.882812 127.742188 43.335938 127.417969 42.804688 127.0625 C 42.277344 126.707031 41.765625 126.328125 41.273438 125.925781 C 40.777344 125.519531 40.308594 125.09375 39.855469 124.640625 C 39.40625 124.191406 38.980469 123.71875 38.574219 123.226562 C 38.167969 122.734375 37.789062 122.222656 37.4375 121.695312 C 37.082031 121.164062 36.753906 120.617188 36.453125 120.054688 C 36.152344 119.492188 35.882812 118.917969 35.636719 118.328125 C 35.394531 117.738281 35.179688 117.140625 34.996094 116.53125 C 34.808594 115.921875 34.65625 115.304688 34.53125 114.679688 C 34.40625 114.054688 34.3125 113.421875 34.25 112.789062 C 34.1875 112.15625 34.15625 111.519531 34.15625 110.882812 C 34.15625 110.246094 34.1875 109.609375 34.25 108.972656 C 34.3125 108.339844 34.40625 107.710938 34.53125 107.085938 C 34.65625 106.460938 34.808594 105.84375 34.996094 105.230469 C 35.179688 104.621094 35.394531 104.023438 35.636719 103.433594 C 35.882812 102.84375 36.152344 102.269531 36.453125 101.707031 C 36.753906 101.144531 37.082031 100.597656 37.4375 100.070312 C 37.789062 99.539062 38.167969 99.027344 38.574219 98.535156 C 38.980469 98.042969 39.40625 97.570312 39.855469 97.121094 C 40.308594 96.667969 40.777344 96.242188 41.273438 95.839844 C 41.765625 95.433594 42.277344 95.054688 42.804688 94.699219 C 43.335938 94.347656 43.882812 94.019531 44.445312 93.71875 C 45.007812 93.417969 45.582031 93.144531 46.171875 92.902344 C 46.757812 92.65625 47.359375 92.445312 47.96875 92.257812 C 48.578125 92.074219 49.195312 91.917969 49.820312 91.792969 C 50.445312 91.671875 51.074219 91.578125 51.710938 91.515625 C 52.34375 91.453125 52.980469 91.421875 53.617188 91.421875 C 54.253906 91.421875 54.890625 91.453125 55.523438 91.515625 C 56.160156 91.578125 56.789062 91.671875 57.414062 91.792969 C 58.039062 91.917969 58.65625 92.074219 59.265625 92.257812 C 59.875 92.445312 60.476562 92.65625 61.066406 92.902344 C 61.652344 93.144531 62.230469 93.417969 62.792969 93.71875 C 63.355469 94.019531 63.898438 94.347656 64.429688 94.699219 C 64.960938 95.054688 65.472656 95.433594 65.964844 95.839844 C 66.457031 96.242188 66.929688 96.667969 67.378906 97.121094 C 67.828125 97.570312 68.257812 98.042969 68.660156 98.535156 C 69.066406 99.027344 69.445312 99.539062 69.800781 100.070312 C 70.152344 100.597656 70.480469 101.144531 70.78125 101.707031 C 71.082031 102.269531 71.351562 102.84375 71.597656 103.433594 C 71.839844 104.023438 72.054688 104.621094 72.242188 105.230469 C 72.425781 105.84375 72.582031 106.460938 72.703125 107.085938 C 72.828125 107.710938 72.921875 108.339844 72.984375 108.972656 C 73.046875 109.609375 73.078125 110.246094 73.078125 110.882812 Z M 73.078125 110.882812 " fill-opacity="1" fill-rule="nonzero"/></g><g clip-path="url(#aa96b68dc0)"><path fill="#04182d" d="M 68.910156 151.867188 L 47.015625 151.867188 C 46.644531 151.867188 46.339844 151.566406 46.339844 151.195312 L 46.339844 138.695312 C 46.339844 136.539062 45.34375 134.511719 43.609375 133.132812 C 37.378906 128.179688 34.164062 120.476562 35.007812 112.523438 C 36.171875 101.59375 45.332031 92.78125 56.320312 92.019531 C 62.800781 91.570312 68.980469 93.753906 73.710938 98.167969 C 78.375 102.519531 81.050781 108.675781 81.050781 115.050781 C 81.050781 122.140625 77.859375 128.738281 72.292969 133.148438 C 70.570312 134.515625 69.582031 136.535156 69.582031 138.691406 L 69.582031 151.195312 C 69.582031 151.566406 69.28125 151.867188 68.910156 151.867188 Z M 47.6875 150.519531 L 68.234375 150.519531 L 68.234375 138.691406 C 68.234375 136.121094 69.410156 133.714844 71.457031 132.09375 C 76.695312 127.941406 79.703125 121.726562 79.703125 115.050781 C 79.703125 109.046875 77.183594 103.253906 72.792969 99.152344 C 68.339844 94.996094 62.527344 92.945312 56.414062 93.363281 C 46.066406 94.078125 37.441406 102.378906 36.347656 112.667969 C 35.550781 120.15625 38.578125 127.414062 44.445312 132.078125 C 46.507812 133.714844 47.6875 136.125 47.6875 138.695312 Z M 47.6875 150.519531 " fill-opacity="1" fill-rule="nonzero"/></g><g clip-path="url(#93a615715d)"><path fill="#04182d" d="M 57.796875 155.734375 C 53.015625 155.734375 49.273438 153.738281 49.273438 151.195312 C 49.273438 150.820312 49.574219 150.519531 49.945312 150.519531 C 50.316406 150.519531 50.617188 150.820312 50.617188 151.195312 C 50.617188 152.703125 53.566406 154.386719 57.796875 154.386719 C 62.027344 154.386719 64.976562 152.703125 64.976562 151.195312 C 64.976562 150.820312 65.277344 150.519531 65.652344 150.519531 C 66.023438 150.519531 66.324219 150.820312 66.324219 151.195312 C 66.324219 153.738281 62.578125 155.734375 57.796875 155.734375 Z M 57.796875 155.734375 " fill-opacity="1" fill-rule="nonzero"/></g><path fill="#04182d" d="M 44.40625 139.367188 C 44.058594 139.367188 43.761719 139.09375 43.738281 138.738281 C 43.710938 138.367188 43.992188 138.046875 44.363281 138.023438 L 71.46875 136.144531 C 71.851562 136.121094 72.160156 136.398438 72.1875 136.769531 C 72.210938 137.140625 71.933594 137.460938 71.5625 137.488281 L 44.457031 139.363281 C 44.4375 139.367188 44.421875 139.367188 44.40625 139.367188 Z M 44.40625 139.367188 " fill-opacity="1" fill-rule="nonzero"/><path fill="#04182d" d="M 44.40625 143.671875 C 44.058594 143.671875 43.761719 143.402344 43.738281 143.046875 C 43.710938 142.675781 43.992188 142.355469 44.363281 142.328125 L 71.46875 140.449219 C 71.851562 140.429688 72.160156 140.703125 72.1875 141.074219 C 72.210938 141.445312 71.933594 141.769531 71.5625 141.792969 L 44.457031 143.671875 C 44.4375 143.671875 44.421875 143.671875 44.40625 143.671875 Z M 44.40625 143.671875 " fill-opacity="1" fill-rule="nonzero"/><path fill="#04182d" d="M 44.40625 147.980469 C 44.058594 147.980469 43.761719 147.707031 43.738281 147.351562 C 43.710938 146.980469 43.992188 146.660156 44.363281 146.636719 L 71.46875 144.757812 C 71.851562 144.730469 72.160156 145.011719 72.1875 145.382812 C 72.210938 145.753906 71.933594 146.074219 71.5625 146.101562 L 44.457031 147.976562 C 44.4375 147.980469 44.421875 147.980469 44.40625 147.980469 Z M 44.40625 147.980469 " fill-opacity="1" fill-rule="nonzero"/><path stroke-linecap="butt" transform="matrix(0.75, 0, 0, 0.75, 57.608989, 116.280242)" fill="none" stroke-linejoin="miter" d="M 61.141144 52.397181 L 41.682809 52.397181 L 41.682809 38.188847 C 41.682809 31.365929 38.188018 26.897179 30.964059 26.897179 C 23.766142 26.897179 20.27135 31.365929 20.27135 38.188847 L 20.27135 85.68885 C 20.27135 92.506558 23.766142 96.975309 30.964059 96.975309 C 38.188018 96.975309 41.682809 92.506558 41.682809 85.68885 L 41.682809 71.475307 L 61.141144 71.475307 L 61.141144 85.68885 C 61.141144 92.506558 64.661978 96.975309 71.859895 96.975309 C 79.057812 96.975309 82.552604 92.506558 82.552604 85.68885 L 82.552604 38.188847 C 82.552604 31.365929 79.057812 26.897179 71.859895 26.897179 C 64.661978 26.897179 61.141144 31.365929 61.141144 38.188847 Z M 121.286981 26.897179 C 121.094273 26.897179 121.000523 26.897179 120.813023 26.897179 C 116.724481 26.897179 113.016147 29.324263 111.375522 33.126346 L 88.589063 81.600308 C 87.807812 83.147183 87.427604 84.714891 87.427604 86.256558 C 87.427604 92.105517 92.297396 96.975309 98.141146 96.975309 C 102.609897 96.975309 106.31823 95.027392 107.859897 90.746142 L 110.500522 83.360725 L 131.625524 83.360725 L 134.141149 90.746142 C 135.708857 95.027392 139.391149 96.975309 143.885941 96.975309 C 149.708858 96.975309 154.57865 92.105517 154.57865 86.256558 C 154.57865 84.714891 154.198442 83.147183 153.411983 81.600308 L 130.651565 33.126346 C 128.891149 29.418013 125.375523 27.089887 121.286981 26.897179 Z M 125.870315 66.798223 L 116.224481 66.798223 L 121.094273 52.990931 Z M 195.260945 26.897179 C 172.875526 26.897179 157.693234 40.516972 157.693234 61.923223 C 157.693234 83.360725 172.875526 96.975309 195.260945 96.975309 C 205.005737 96.975309 213.177612 93.480517 218.427613 89.178433 C 220.755738 87.230516 222.135946 84.714891 222.135946 81.600308 C 222.135946 75.756557 218.620321 72.261765 212.391154 72.261765 C 210.443237 72.261765 209.281779 72.641974 207.71407 73.615932 C 203.43282 76.537807 199.943237 78.084683 195.260945 78.084683 C 185.542194 78.084683 179.104693 72.048224 179.104693 61.923223 C 179.104693 51.803431 185.542194 45.766972 195.260945 45.766972 C 199.943237 45.766972 203.43282 47.33468 207.71407 50.256556 C 209.281779 51.230514 210.443237 51.610722 212.391154 51.610722 C 218.620321 51.610722 222.135946 48.121139 222.135946 42.27218 C 222.135946 39.162805 220.755738 36.61593 218.427613 34.694055 C 213.177612 30.391971 205.005737 26.897179 195.260945 26.897179 Z M 239.245322 26.897179 C 232.047405 26.897179 228.552613 31.365929 228.552613 38.188847 L 228.552613 85.68885 C 228.552613 92.506558 232.047405 96.975309 239.245322 96.975309 C 246.469281 96.975309 249.964073 92.506558 249.964073 85.68885 L 249.964073 71.475307 L 257.354699 71.475307 L 274.484908 92.886767 C 276.432825 95.4076 279.547408 96.975309 282.849492 96.975309 C 288.505742 96.975309 293.188034 92.293017 293.188034 86.4701 C 293.188034 84.121141 292.401576 81.787808 290.833867 79.839891 L 276.625533 61.923223 L 290.833867 44.032597 C 292.401576 42.08468 293.188034 39.756555 293.188034 37.402388 C 293.188034 31.558638 288.505742 26.897179 282.849492 26.897179 C 279.953658 26.897179 276.625533 28.251346 274.484908 30.985721 L 257.354699 52.397181 L 249.964073 52.397181 L 249.964073 38.188847 C 249.964073 31.365929 246.469281 26.897179 239.245322 26.897179 Z M 239.245322 26.897179 " stroke="#000000" stroke-width="1.764164" stroke-opacity="1" stroke-miterlimit="4"/><g fill="#ff5959" fill-opacity="1"><g transform="translate(218.350482, 260.120334)"><g><path d="M -58.703125 -11.574219 C -58.703125 -6.117188 -55.230469 -3.308594 -49.9375 -3.308594 L -7.9375 -3.308594 C -2.8125 -3.308594 0.828125 -6.117188 0.828125 -11.574219 C 0.828125 -17.03125 -2.8125 -19.84375 -7.9375 -19.84375 L -49.9375 -19.84375 C -55.230469 -19.84375 -58.703125 -17.03125 -58.703125 -11.574219 Z M -58.703125 -11.574219 "/></g></g></g><g fill="#5ce1e6" fill-opacity="1"><g transform="translate(92.847225, 255.890056)"><g><path d="M 11.574219 -58.703125 C 6.117188 -58.703125 3.308594 -55.230469 3.308594 -49.9375 L 3.308594 -7.9375 C 3.308594 -2.8125 6.117188 0.828125 11.574219 0.828125 C 17.03125 0.828125 19.84375 -2.8125 19.84375 -7.9375 L 19.84375 -49.9375 C 19.84375 -55.230469 17.03125 -58.703125 11.574219 -58.703125 Z M 11.574219 -58.703125 "/></g></g></g><g fill="#c0f1c0" fill-opacity="1"><g transform="translate(322.072363, 250.992123)"><g><path d="M -1.273438 -59.820312 C -6.601562 -58.652344 -8.605469 -54.65625 -7.472656 -49.488281 L 1.53125 -8.460938 C 2.628906 -3.453125 6.152344 -0.503906 11.484375 -1.671875 C 16.8125 -2.84375 18.78125 -7 17.679688 -12.003906 L 8.679688 -53.03125 C 7.546875 -58.199219 4.058594 -60.988281 -1.273438 -59.820312 Z M -1.273438 -59.820312 "/></g></g></g><path stroke-linecap="butt" transform="matrix(0.75, 0, 0, 0.75, 96.70327, 177.332919)" fill="none" stroke-linejoin="miter" d="M 4.874807 80.212364 C 3.307098 81.97278 2.327932 84.108197 2.327932 86.462364 C 2.327932 91.530073 6.228974 95.998823 11.890432 95.998823 L 47.916476 95.998823 C 54.551893 95.998823 57.473769 90.556114 57.473769 86.462364 C 57.473769 82.373822 53.952935 76.905072 47.916476 76.905072 L 34.859184 76.905072 L 45.202934 64.066529 C 50.458143 57.431112 52.598768 53.149862 52.598768 46.920695 C 52.598768 34.243611 43.822726 26.847777 30.197725 26.847777 C 18.119599 26.847777 8.963349 31.722777 5.848765 38.524861 C 5.255015 39.905069 4.874807 41.071736 4.874807 42.613403 C 4.874807 48.65507 9.343557 52.175903 14.411266 52.175903 C 16.551891 52.175903 18.312308 51.582153 20.067516 50.222778 C 23.755016 47.488403 25.921683 45.727986 28.249808 45.727986 C 30.197725 45.727986 31.176892 46.707153 31.176892 48.274861 C 31.176892 49.24882 30.390433 50.222778 29.603975 51.009237 Z M 70.307103 27.826943 C 65.051894 27.826943 60.770644 32.102985 60.770644 37.358194 C 60.770644 42.613403 65.051894 46.920695 70.307103 46.920695 L 78.890437 46.920695 L 78.890437 85.681114 C 78.890437 92.504031 82.197729 96.972781 89.400854 96.972781 C 96.609188 96.972781 100.317521 92.504031 100.317521 85.681114 L 100.317521 46.920695 L 108.687314 46.920695 C 113.942522 46.920695 118.249814 42.613403 118.249814 37.358194 C 118.249814 32.102985 113.942522 27.826943 108.687314 27.826943 Z M 133.807107 27.826943 C 126.603981 27.826943 123.103981 32.295694 123.103981 39.118611 L 123.103981 84.707156 C 123.103981 91.530073 126.603981 95.998823 133.807107 95.998823 L 167.525859 95.998823 C 171.994609 95.998823 175.708151 92.290489 175.708151 87.821739 C 175.708151 83.34778 171.994609 79.451947 167.525859 79.451947 L 144.531066 79.451947 L 144.531066 70.295696 L 157.775858 70.295696 C 162.244609 70.295696 165.958151 66.394654 165.958151 61.899862 C 165.958151 57.431112 162.244609 53.53007 157.775858 53.53007 L 144.531066 53.53007 L 144.531066 44.37382 L 167.525859 44.37382 C 171.994609 44.37382 175.708151 40.472778 175.708151 36.004027 C 175.708151 31.509235 171.994609 27.826943 167.525859 27.826943 Z M 217.765446 26.847777 C 195.364403 26.847777 180.171693 40.472778 180.171693 61.899862 C 180.171693 83.34778 195.364403 96.972781 217.765446 96.972781 C 227.515446 96.972781 235.69253 93.477989 240.947739 89.175906 C 243.281072 87.227989 244.661281 84.707156 244.661281 81.587364 C 244.661281 75.738405 241.140447 72.243613 234.91128 72.243613 C 232.958155 72.243613 231.796697 72.623821 230.22378 73.59778 C 225.947738 76.524863 222.447738 78.071738 217.765446 78.071738 C 208.041487 78.071738 201.59357 72.030071 201.59357 61.899862 C 201.59357 51.769653 208.041487 45.727986 217.765446 45.727986 C 222.447738 45.727986 225.947738 47.300903 230.22378 50.222778 C 231.796697 51.201945 232.958155 51.582153 234.91128 51.582153 C 241.140447 51.582153 244.661281 48.082153 244.661281 42.233194 C 244.661281 39.118611 243.281072 36.576944 240.947739 34.649861 C 235.69253 30.347777 227.515446 26.847777 217.765446 26.847777 Z M 291.978992 52.363403 L 272.505033 52.363403 L 272.505033 38.144652 C 272.505033 31.321735 269.005032 26.847777 261.775865 26.847777 C 254.57274 26.847777 251.077948 31.321735 251.077948 38.144652 L 251.077948 85.681114 C 251.077948 92.504031 254.57274 96.972781 261.775865 96.972781 C 269.005032 96.972781 272.505033 92.504031 272.505033 85.681114 L 272.505033 71.462363 L 291.978992 71.462363 L 291.978992 85.681114 C 291.978992 92.504031 295.494618 96.972781 302.702951 96.972781 C 309.906077 96.972781 313.400869 92.504031 313.400869 85.681114 L 313.400869 38.144652 C 313.400869 31.321735 309.906077 26.847777 302.702951 26.847777 C 295.494618 26.847777 291.978992 31.321735 291.978992 38.144652 Z M 291.978992 52.363403 " stroke="#000000" stroke-width="1.765455" stroke-opacity="1" stroke-miterlimit="4"/><g fill="#000000" fill-opacity="1"><g transform="translate(233.099241, 271.795734)"><g><path d="M 6.863281 -15.617188 C 3.300781 -15.617188 1.496094 -13.769531 1.496094 -11.109375 C 1.496094 -8.535156 2.75 -7.324219 4.972656 -6.710938 L 7.699219 -5.984375 C 9.105469 -5.632812 9.523438 -5.015625 9.523438 -4.265625 C 9.523438 -3.234375 8.777344 -2.464844 7.015625 -2.464844 C 5.300781 -2.464844 4.113281 -2.726562 2.949219 -3.476562 C 2.726562 -3.628906 2.464844 -3.695312 2.242188 -3.695312 C 1.453125 -3.695312 0.925781 -3.144531 0.925781 -2.375 C 0.925781 -2.066406 1.035156 -1.738281 1.296875 -1.472656 C 2.574219 -0.328125 4.488281 0.21875 7.082031 0.21875 C 10.910156 0.21875 12.714844 -1.78125 12.714844 -4.421875 C 12.714844 -6.820312 11.660156 -8.027344 9.238281 -8.6875 L 6.511719 -9.414062 C 5.28125 -9.722656 4.683594 -10.183594 4.683594 -11.21875 C 4.683594 -12.273438 5.542969 -12.933594 7.128906 -12.933594 C 8.226562 -12.933594 9.195312 -12.582031 10.074219 -11.921875 C 10.292969 -11.746094 10.558594 -11.703125 10.824219 -11.703125 C 11.703125 -11.703125 12.144531 -12.253906 12.144531 -13.023438 C 12.144531 -13.332031 12.054688 -13.59375 11.835938 -13.859375 C 10.824219 -14.871094 8.820312 -15.617188 6.863281 -15.617188 Z M 6.863281 -15.617188 "/></g></g></g><g fill="#000000" fill-opacity="1"><g transform="translate(246.648827, 271.795734)"><g><path d="M 2.925781 -15.617188 C 1.871094 -15.617188 1.34375 -14.957031 1.34375 -13.945312 L 1.34375 -5.761719 C 1.34375 -2.15625 3.847656 0.21875 7.832031 0.21875 C 11.8125 0.21875 14.34375 -2.15625 14.34375 -5.761719 L 14.34375 -13.945312 C 14.34375 -14.957031 13.8125 -15.617188 12.757812 -15.617188 C 11.703125 -15.617188 11.128906 -14.957031 11.128906 -13.945312 L 11.128906 -6.117188 C 11.128906 -3.847656 9.988281 -2.617188 7.832031 -2.617188 C 5.675781 -2.617188 4.53125 -3.894531 4.53125 -6.117188 L 4.53125 -13.945312 C 4.53125 -14.957031 3.980469 -15.617188 2.925781 -15.617188 Z M 2.925781 -15.617188 "/></g></g></g><g fill="#000000" fill-opacity="1"><g transform="translate(262.310032, 271.795734)"><g><path d="M 6.863281 -15.617188 C 3.300781 -15.617188 1.496094 -13.769531 1.496094 -11.109375 C 1.496094 -8.535156 2.75 -7.324219 4.972656 -6.710938 L 7.699219 -5.984375 C 9.105469 -5.632812 9.523438 -5.015625 9.523438 -4.265625 C 9.523438 -3.234375 8.777344 -2.464844 7.015625 -2.464844 C 5.300781 -2.464844 4.113281 -2.726562 2.949219 -3.476562 C 2.726562 -3.628906 2.464844 -3.695312 2.242188 -3.695312 C 1.453125 -3.695312 0.925781 -3.144531 0.925781 -2.375 C 0.925781 -2.066406 1.035156 -1.738281 1.296875 -1.472656 C 2.574219 -0.328125 4.488281 0.21875 7.082031 0.21875 C 10.910156 0.21875 12.714844 -1.78125 12.714844 -4.421875 C 12.714844 -6.820312 11.660156 -8.027344 9.238281 -8.6875 L 6.511719 -9.414062 C 5.28125 -9.722656 4.683594 -10.183594 4.683594 -11.21875 C 4.683594 -12.273438 5.542969 -12.933594 7.128906 -12.933594 C 8.226562 -12.933594 9.195312 -12.582031 10.074219 -11.921875 C 10.292969 -11.746094 10.558594 -11.703125 10.824219 -11.703125 C 11.703125 -11.703125 12.144531 -12.253906 12.144531 -13.023438 C 12.144531 -13.332031 12.054688 -13.59375 11.835938 -13.859375 C 10.824219 -14.871094 8.820312 -15.617188 6.863281 -15.617188 Z M 6.863281 -15.617188 "/></g></g></g><g fill="#000000" fill-opacity="1"><g transform="translate(275.859618, 271.795734)"><g><path d="M 1.804688 -15.398438 C 1.011719 -15.398438 0.394531 -14.761719 0.394531 -13.96875 C 0.394531 -13.175781 1.011719 -12.539062 1.804688 -12.539062 L 4.75 -12.539062 L 4.75 -1.453125 C 4.75 -0.441406 5.28125 0.21875 6.335938 0.21875 C 7.390625 0.21875 7.941406 -0.441406 7.941406 -1.453125 L 7.941406 -12.539062 L 10.867188 -12.539062 C 11.660156 -12.539062 12.296875 -13.175781 12.296875 -13.96875 C 12.296875 -14.761719 11.660156 -15.398438 10.867188 -15.398438 Z M 1.804688 -15.398438 "/></g></g></g><g fill="#000000" fill-opacity="1"><g transform="translate(288.485368, 271.795734)"><g><path d="M 7.480469 -15.617188 C 7.457031 -15.617188 7.433594 -15.617188 7.433594 -15.617188 C 6.820312 -15.617188 6.246094 -15.246094 5.984375 -14.695312 L 0.550781 -2.066406 C 0.441406 -1.824219 0.394531 -1.605469 0.394531 -1.363281 C 0.394531 -0.484375 1.101562 0.21875 1.980469 0.21875 C 2.640625 0.21875 3.191406 -0.0664062 3.429688 -0.703125 L 4.53125 -3.695312 L 10.339844 -3.695312 L 11.4375 -0.703125 C 11.679688 -0.0664062 12.230469 0.21875 12.890625 0.21875 C 13.769531 0.21875 14.496094 -0.484375 14.496094 -1.363281 C 14.496094 -1.605469 14.429688 -1.824219 14.320312 -2.066406 L 8.886719 -14.695312 C 8.621094 -15.246094 8.09375 -15.597656 7.480469 -15.617188 Z M 9.4375 -6.179688 L 5.457031 -6.179688 L 7.457031 -11.613281 Z M 9.4375 -6.179688 "/></g></g></g><g fill="#000000" fill-opacity="1"><g transform="translate(303.31073, 271.795734)"><g><path d="M 1.804688 -15.398438 C 1.011719 -15.398438 0.394531 -14.761719 0.394531 -13.96875 C 0.394531 -13.175781 1.011719 -12.539062 1.804688 -12.539062 L 3.476562 -12.539062 L 3.476562 -2.859375 L 1.804688 -2.859375 C 1.011719 -2.859375 0.394531 -2.222656 0.394531 -1.429688 C 0.394531 -0.636719 1.011719 0 1.804688 0 L 8.335938 0 C 9.128906 0 9.765625 -0.636719 9.765625 -1.429688 C 9.765625 -2.222656 9.128906 -2.859375 8.335938 -2.859375 L 6.644531 -2.859375 L 6.644531 -12.539062 L 8.335938 -12.539062 C 9.128906 -12.539062 9.765625 -13.175781 9.765625 -13.96875 C 9.765625 -14.761719 9.128906 -15.398438 8.335938 -15.398438 Z M 1.804688 -15.398438 "/></g></g></g><g fill="#000000" fill-opacity="1"><g transform="translate(313.428932, 271.795734)"><g><path d="M 2.925781 -15.597656 C 2.046875 -15.597656 1.34375 -14.914062 1.34375 -14.035156 L 1.34375 -1.363281 C 1.34375 -0.484375 2.046875 0.21875 2.925781 0.21875 C 3.804688 0.21875 4.53125 -0.484375 4.53125 -1.363281 L 4.53125 -9.964844 L 11.527344 -0.351562 C 11.8125 0.0234375 12.273438 0.199219 12.757812 0.199219 C 13.636719 0.199219 14.34375 -0.484375 14.34375 -1.363281 L 14.34375 -14.035156 C 14.34375 -14.914062 13.636719 -15.617188 12.757812 -15.617188 C 11.855469 -15.617188 11.152344 -14.914062 11.152344 -14.035156 L 11.152344 -5.433594 L 4.15625 -15.046875 C 3.871094 -15.421875 3.410156 -15.597656 2.925781 -15.597656 Z M 2.925781 -15.597656 "/></g></g></g></svg>